#!OML:ASF F:\VICON\USERDATA\INSTALL\rory3\rory3.ASF
:FULLY-SPECIFIED
:DEGREES
314
root 0.414275 18.1706 24.1521 -3.3103 1.18537 -4.05045
lowerback 10.9212 -0.10411 1.47575
upperback 0.93712 0.186635 2.65027
thorax -5.15336 0.087664 1.91167
lowerneck -16.56 -3.0649 -2.02965
upperneck 16.9342 -4.15675 2.29331
head 8.0663 -1.87162 0.608331
rclavicle -1.49089e-015 9.14409e-015
rhumerus -31.9001 -24.6491 -75.2932
rradius 21.1534
rwrist 9.91088
rhand -16.5776 22.5997
rfingers 7.12502
rthumb 9.64291 -7.15954
lclavicle -1.49089e-015 9.14409e-015
lhumerus -27.4667 -2.45772 85.6978
lradius 28.9432
lwrist 6.3681
lhand -26.659 14.8429
lfingers 7.12502
lthumb -0.0907018 44.8227
rfemur -12.2832 3.56627 31.1913
rtibia 27.6951
rfoot -8.6747 -4.97229
rtoes 11.4938
lfemur -12.8558 2.81686 -14.1966
ltibia 68.6625
lfoot 6.00071 -18.9729
ltoes -5.93356
315
root 0.411083 18.1857 24.3216 -3.40559 1.04159 -4.31479
lowerback 11.0238 -0.0251142 1.82842
upperback 0.904166 0.338854 2.6415
thorax -5.24679 0.154602 1.68113
lowerneck -16.2997 -3.13134 -1.86116
upperneck 17.0272 -4.26058 2.11216
head 8.04572 -1.92998 0.511591
rclavicle -5.35476e-015 -1.03368e-014
rhumerus -31.6123 -24.2986 -75.582
rradius 21.2453
rwrist 9.66723
rhand -16.6769 22.9437
rfingers 7.12502
rthumb 9.54713 -6.81997
lclavicle -5.35476e-015 -1.03368e-014
lhumerus -27.7704 -2.52273 85.8096
lradius 28.8201
lwrist 6.62382
lhand -27.0709 4.62625
lfingers 7.12502
lthumb -0.488535 34.6054
rfemur -11.5036 3.45469 31.5748
rtibia 27.618
rfoot -9.0731 -4.9246
rtoes 11.2979
lfemur -13.9871 3.1476 -13.8859
ltibia 69.2496
lfoot 4.56105 -17.8489
ltoes -7.01894
316
root 0.412376 18.1953 24.4844 -3.41292 0.987217 -4.45581
lowerback 11.0968 0.0125016 2.14638
upperback 0.884652 0.427278 2.56564
thorax -5.30665 0.189844 1.40906
lowerneck -16.215 -3.07529 -1.74226
upperneck 17.0849 -4.2038 2.05194
head 8.04481 -1.90169 0.479838
rclavicle 6.49777e-015 -1.59028e-014
rhumerus -31.2923 -23.7405 -76.0903
rradius 21.6395
rwrist 9.04467
rhand -16.6369 23.2308
rfingers 7.12502
rthumb 9.58571 -6.53113
lclavicle 6.49777e-015 -1.59028e-014
lhumerus -28.0014 -2.31586 85.7807
lradius 28.7224
lwrist 6.42877
lhand -26.4562 14.1392
lfingers 7.12502
lthumb 0.105175 44.1189
rfemur -10.8048 3.30154 31.7815
rtibia 27.4893
rfoot -9.54565 -4.8629
rtoes 11.4482
lfemur -15.2244 3.35985 -13.7578
ltibia 69.6805
lfoot 3.46084 -16.5405
ltoes -5.62721
317
root 0.413307 18.1977 24.6476 -3.26821 0.682237 -4.60622
lowerback 10.9265 0.120373 2.36382
upperback 0.895331 0.589135 2.55391
thorax -5.19951 0.265031 1.24896
lowerneck -16.2553 -2.97819 -1.8287
upperneck 17.1722 -4.07494 2.17253
head 8.08316 -1.83296 0.548144
rclavicle -7.61594e-015 9.74045e-015
rhumerus -30.8649 -22.7705 -76.7111
rradius 22.1747
rwrist 8.0816
rhand -16.673 23.215
rfingers 7.12502
rthumb 9.5509 -6.54856
lclavicle -7.61594e-015 9.74045e-015
lhumerus -28.1805 -1.72927 85.6548
lradius 28.7213
lwrist 5.73415
lhand -24.5542 22.947
lfingers 7.12502
lthumb 1.9421 52.9179
rfemur -10.2586 3.35242 32.001
rtibia 27.3629
rfoot -9.99475 -4.7154
rtoes 11.5871
lfemur -16.4628 3.80409 -13.6576
ltibia 69.8878
lfoot 2.26862 -15.6457
ltoes -3.74423
318
root 0.411182 18.1915 24.8095 -3.27231 0.22093 -4.95956
lowerback 10.9809 0.281475 2.7833
upperback 0.920745 0.857302 2.58568
thorax -5.19907 0.38806 1.00511
lowerneck -16.5326 -2.95632 -1.64751
upperneck 17.4916 -4.03419 1.87887
head 8.22778 -1.82672 0.420122
rclavicle -4.72114e-016 -2.90226e-014
rhumerus -30.4253 -21.9626 -77.2499
rradius 22.5249
rwrist 7.25806
rhand -16.7734 23.0989
rfingers 7.12502
rthumb 9.45399 -6.6691
lclavicle -4.72114e-016 -2.90226e-014
lhumerus -28.4041 -1.76697 85.6575
lradius 28.6751
lwrist 6.05851
lhand -23.8123 26.3218
lfingers 7.12502
lthumb 2.65865 56.285
rfemur -9.56506 3.63728 32.4815
rtibia 27.3051
rfoot -10.4854 -4.77713
rtoes 11.6065
lfemur -17.5566 4.36903 -13.272
ltibia 69.9448
lfoot 1.44812 -14.9248
ltoes -2.11071
319
root 0.409509 18.1901 24.9669 -3.21648 -0.0613202 -4.98424
lowerback 10.9161 0.429228 2.88275
upperback 0.980629 1.05692 2.52925
thorax -5.09659 0.484723 0.860027
lowerneck -16.8676 -2.99695 -1.42849
upperneck 17.7853 -4.08075 1.55341
head 8.37459 -1.86269 0.263377
rclavicle 1.12935e-014 8.54774e-015
rhumerus -29.9237 -20.802 -77.9206
rradius 23.0197
rwrist 6.07339
rhand -16.7107 23.1328
rfingers 7.12502
rthumb 9.51449 -6.63243
lclavicle 1.12935e-014 8.54774e-015
lhumerus -28.5212 -1.91911 85.7813
lradius 28.5283
lwrist 6.98454
lhand -24.8592 23.4363
lfingers 7.12502
lthumb 1.64751 53.4097
rfemur -8.99478 3.84276 32.5946
rtibia 27.2621
rfoot -11.0352 -4.93057
rtoes 10.9125
lfemur -18.7349 4.6116 -13.3267
ltibia 69.7973
lfoot 0.701295 -13.9853
ltoes -0.653924
320
root 0.409513 18.1875 25.1195 -3.05276 -0.22883 -4.87514
lowerback 10.8596 0.549319 2.89766
upperback 0.959417 1.20926 2.40053
thorax -5.08319 0.558129 0.694457
lowerneck -16.654 -3.03853 -1.56613
upperneck 17.6016 -4.14576 1.76844
head 8.28393 -1.88341 0.354167
rclavicle 9.03228e-015 -3.37934e-015
rhumerus -29.6135 -19.2947 -78.7047
rradius 23.9219
rwrist 4.41932
rhand -16.7571 22.8949
rfingers 7.12502
rthumb 9.46969 -6.87234
lclavicle 9.03228e-015 -3.37934e-015
lhumerus -28.7617 -1.98181 85.8114
lradius 28.5968
lwrist 7.69221
lhand -25.998 18.7018
lfingers 7.12502
lthumb 0.547652 48.6808
rfemur -8.5562 3.91361 32.5241
rtibia 27.2439
rfoot -11.8713 -4.87452
rtoes 10.3258
lfemur -19.9819 4.6501 -13.5828
ltibia 69.4216
lfoot 0.0212205 -13.0049
ltoes 0.705128
321
root 0.407369 18.1794 25.2803 -2.95995 -0.565472 -5.17666
lowerback 10.9811 0.667191 3.22994
upperback 0.870428 1.41742 2.43465
thorax -5.23607 0.651311 0.510576
lowerneck -16.3037 -3.03493 -1.89086
upperneck 17.3892 -4.12376 2.08535
head 8.16467 -1.8668 0.521712
rclavicle 9.3553e-015 1.39149e-014
rhumerus -29.3815 -18.3142 -79.1184
rradius 24.4979
rwrist 3.70756
rhand -16.92 22.7045
rfingers 7.12502
rthumb 9.31256 -7.06982
lclavicle 9.3553e-015 1.39149e-014
lhumerus -29.1275 -1.74598 85.7774
lradius 28.6286
lwrist 7.95468
lhand -26.1352 16.4975
lfingers 7.12502
lthumb 0.415212 46.4768
rfemur -8.05365 4.08125 32.9268
rtibia 27.2741
rfoot -11.9861 -4.85968
rtoes 11.9418
lfemur -21.0038 4.89217 -13.3068
ltibia 68.8735
lfoot -1.26444 -12.1173
ltoes -1.34492
322
root 0.41003 18.1746 25.4474 -2.9289 -0.803833 -5.33768
lowerback 10.9794 0.766021 3.50592
upperback 0.836188 1.5813 2.39222
thorax -5.26038 0.724582 0.286265
lowerneck -16.1683 -3.04145 -1.7673
upperneck 17.3679 -4.12494 1.89001
head 8.12633 -1.88045 0.438488
rclavicle 9.81499e-016 3.16068e-014
rhumerus -29.1316 -17.9371 -79.3543
rradius 24.9836
rwrist 3.95586
rhand -16.9644 21.0715
rfingers 7.12502
rthumb 9.26965 -8.70469
lclavicle 9.81499e-016 3.16068e-014
lhumerus -29.4614 -1.78875 85.7734
lradius 28.6031
lwrist 8.41801
lhand -26.1459 16.7541
lfingers 7.12502
lthumb 0.404822 46.7335
rfemur -7.50201 3.89948 33.14
rtibia 27.2991
rfoot -12.4272 -4.78432
rtoes 11.4295
lfemur -21.8774 4.93484 -13.2454
ltibia 68.1012
lfoot -2.38497 -11.1727
ltoes -4.87819
323
root 0.420357 18.1762 25.6077 -2.83142 -0.949963 -5.23659
lowerback 10.8149 0.811271 3.5446
upperback 0.885824 1.63057 2.31359
thorax -5.11171 0.749626 0.177752
lowerneck -16.0941 -3.03621 -1.74815
upperneck 17.272 -4.10522 1.81236
head 8.07851 -1.87905 0.413565
rclavicle 7.16867e-015 2.38542e-015
rhumerus -28.5544 -17.4936 -79.6492
rradius 25.4744
rwrist 4.29507
rhand -16.7424 19.1939
rfingers 7.12502
rthumb 9.48389 -10.5727
lclavicle 7.16867e-015 2.38542e-015
lhumerus -29.5201 -1.44886 85.725
lradius 28.3832
lwrist 8.65299
lhand -25.8596 17.8889
lfingers 7.12502
lthumb 0.681342 47.8675
rfemur -7.04812 3.46317 32.9986
rtibia 27.3259
rfoot -12.9521 -4.5279
rtoes 10.9284
lfemur -22.8694 4.81817 -13.5572
ltibia 67.1308
lfoot -2.8624 -10.2903
ltoes -6.94927
324
root 0.428113 18.1738 25.763 -2.70294 -1.13856 -5.31719
lowerback 10.878 0.874007 3.81023
upperback 0.867021 1.74598 2.23955
thorax -5.15413 0.798834 -0.0669909
lowerneck -16.0265 -3.01528 -1.66011
upperneck 17.0796 -4.06905 1.68714
head 7.99687 -1.87065 0.364147
rclavicle 1.54431e-014 1.78906e-015
rhumerus -28.0871 -16.6455 -80.1009
rradius 26.1016
rwrist 3.75066
rhand -16.7023 18.3436
rfingers 7.12502
rthumb 9.52257 -11.4212
lclavicle 1.54431e-014 1.78906e-015
lhumerus -29.5343 -1.11829 85.6254
lradius 28.0815
lwrist 8.63545
lhand -25.9454 17.3454
lfingers 7.12502
lthumb 0.598476 47.3243
rfemur -6.62747 3.11533 33.061
rtibia 27.3599
rfoot -13.5139 -4.22335
rtoes 11.0583
lfemur -23.8582 4.81074 -13.618
ltibia 66.0415
lfoot -3.46175 -9.31432
ltoes -7.19063
325
root 0.43549 18.1591 25.9171 -2.58138 -1.33562 -5.40906
lowerback 11.1472 0.957999 4.07847
upperback 0.697345 1.90936 2.16568
thorax -5.46789 0.864882 -0.325982
lowerneck -16.0178 -2.99822 -1.59984
upperneck 17.1355 -4.03285 1.54429
head 8.00879 -1.86363 0.310982
rclavicle -8.35517e-015 1.89839e-014
rhumerus -28.03 -15.7371 -80.4388
rradius 26.9979
rwrist 3.09061
rhand -16.4684 17.3023
rfingers 7.12502
rthumb 9.74829 -12.4521
lclavicle -8.35517e-015 1.89839e-014
lhumerus -29.9176 -0.967323 85.5601
lradius 27.9121
lwrist 8.81177
lhand -25.8017 16.2847
lfingers 7.12502
lthumb 0.737292 46.2631
rfemur -6.21192 2.91944 33.1446
rtibia 27.4587
rfoot -14.2819 -4.04212
rtoes 11.1932
lfemur -24.6896 4.76208 -13.6637
ltibia 64.8756
lfoot -4.59653 -8.13337
ltoes -8.09143
326
root 0.439978 18.1442 26.0816 -2.52023 -1.67775 -5.54336
lowerback 11.1175 1.03785 4.23498
upperback 0.722055 2.03409 2.2057
thorax -5.41727 0.923948 -0.389961
lowerneck -16.1543 -2.90242 -1.68746
upperneck 17.1771 -3.86922 1.50014
head 8.04493 -1.79496 0.327533
rclavicle -1.10574e-015 -4.96962e-016
rhumerus -27.6736 -14.7666 -80.7642
rradius 27.7802
rwrist 2.72172
rhand -16.4131 15.9357
rfingers 7.12502
rthumb 9.80164 -13.8162
lclavicle -1.10574e-015 -4.96962e-016
lhumerus -30.3348 -1.00941 85.7285
lradius 28.1291
lwrist 9.91846
lhand -26.2833 17.2647
lfingers 7.12502
lthumb 0.272083 47.2443
rfemur -5.67958 2.90734 33.3098
rtibia 27.5111
rfoot -14.9717 -4.04535
rtoes 11.4982
lfemur -25.2569 4.76324 -13.59
ltibia 63.5612
lfoot -5.41844 -7.0323
ltoes -7.60406
327
root 0.443349 18.1268 26.2456 -2.48665 -1.98307 -5.63655
lowerback 10.9251 1.13675 4.38309
upperback 0.92128 2.16034 2.1767
thorax -5.08863 0.990862 -0.515427
lowerneck -16.4972 -2.85796 -1.67378
upperneck 17.1846 -3.80749 1.50699
head 8.10683 -1.76145 0.330063
rclavicle 2.41026e-015 5.96354e-016
rhumerus -26.8135 -14.3352 -81.1274
rradius 27.938
rwrist 2.44853
rhand -16.5905 14.8571
rfingers 7.12502
rthumb 9.63043 -14.9028
lclavicle 2.41026e-015 5.96354e-016
lhumerus -30.2301 -1.08476 85.778
lradius 28.1631
lwrist 10.5852
lhand -26.1498 17.9537
lfingers 7.12502
lthumb 0.401048 47.9331
rfemur -5.13833 3.00156 33.4578
rtibia 27.5145
rfoot -15.4757 -4.33769
rtoes 11.3979
lfemur -25.4731 4.82365 -13.5644
ltibia 62.1038
lfoot -6.30856 -5.64387
ltoes -9.07861
328
root 0.446299 18.1228 26.3969 -2.31613 -2.08059 -5.82098
lowerback 10.9104 1.19232 4.65781
upperback 0.968952 2.26283 2.15723
thorax -5.01497 1.03718 -0.703461
lowerneck -16.8867 -2.87755 -1.64258
upperneck 17.2912 -3.82616 1.4481
head 8.20971 -1.7707 0.297101
rclavicle 3.92041e-014 1.42131e-014
rhumerus -25.9612 -13.9188 -81.3943
rradius 27.8485
rwrist 1.95789
rhand -16.8488 16.2317
rfingers 7.12502
rthumb 9.38119 -13.5396
lclavicle 3.92041e-014 1.42131e-014
lhumerus -30.0881 -0.479965 85.5371
lradius 27.8041
lwrist 9.46648
lhand -25.8909 16.8206
lfingers 7.12502
lthumb 0.651085 46.7993
rfemur -4.76215 3.14404 33.7198
rtibia 27.3954
rfoot -16.0566 -4.98163
rtoes 10.2329
lfemur -26.2806 4.65362 -13.4569
ltibia 60.4441
lfoot -6.95658 -4.67499
ltoes -11.3099
